G04 #@! TF.GenerationSoftware,KiCad,Pcbnew,9.0.2-9.0.2-0~ubuntu22.04.1*
G04 #@! TF.CreationDate,2025-06-26T23:22:32-04:00*
G04 #@! TF.ProjectId,6-13-2025_BuckConverter,362d3133-2d32-4303-9235-5f4275636b43,rev?*
G04 #@! TF.SameCoordinates,Original*
G04 #@! TF.FileFunction,Copper,L2,Bot*
G04 #@! TF.FilePolarity,Positive*
%FSLAX46Y46*%
G04 Gerber Fmt 4.6, Leading zero omitted, Abs format (unit mm)*
G04 Created by KiCad (PCBNEW 9.0.2-9.0.2-0~ubuntu22.04.1) date 2025-06-26 23:22:32*
%MOMM*%
%LPD*%
G01*
G04 APERTURE LIST*
G04 #@! TA.AperFunction,ComponentPad*
%ADD10C,1.950000*%
G04 #@! TD*
G04 #@! TA.AperFunction,ViaPad*
%ADD11C,0.600000*%
G04 #@! TD*
G04 #@! TA.AperFunction,Conductor*
%ADD12C,0.250000*%
G04 #@! TD*
G04 APERTURE END LIST*
D10*
X137025000Y-71315000D03*
X137025000Y-66315000D03*
X111845000Y-70905000D03*
X106845000Y-70905000D03*
D11*
X110445000Y-52775000D03*
X114600000Y-65300000D03*
X120935000Y-63305000D03*
X119685000Y-63305000D03*
X120935000Y-65805000D03*
X119685000Y-68305000D03*
X113960000Y-54915000D03*
X122185000Y-63305000D03*
X124685000Y-68305000D03*
X120935000Y-64555000D03*
X124685000Y-63305000D03*
X122185000Y-68305000D03*
X124685000Y-67055000D03*
X120935000Y-68305000D03*
X119685000Y-64555000D03*
X112840000Y-54905000D03*
X124685000Y-64555000D03*
X124685000Y-65805000D03*
X123435000Y-68305000D03*
X122185000Y-67055000D03*
X123435000Y-67055000D03*
X120935000Y-67055000D03*
X119685000Y-67055000D03*
X123435000Y-63305000D03*
X123435000Y-64555000D03*
X123435000Y-65805000D03*
X122185000Y-65805000D03*
X122185000Y-64555000D03*
X119685000Y-65805000D03*
X111730000Y-54915000D03*
X128405000Y-68275000D03*
X105585000Y-56285000D03*
X129945000Y-68275000D03*
X108195000Y-62995000D03*
D12*
X114600000Y-65300000D02*
X114050000Y-65300000D01*
X114050000Y-65300000D02*
X110445000Y-61695000D01*
X110445000Y-61695000D02*
X110445000Y-52775000D01*
X124205000Y-75545000D02*
X105475000Y-75545000D01*
X104365000Y-66825000D02*
X108195000Y-62995000D01*
X129945000Y-69805000D02*
X124205000Y-75545000D01*
X104365000Y-72815000D02*
X104365000Y-66825000D01*
X123715000Y-74535000D02*
X106085000Y-74535000D01*
X129945000Y-68275000D02*
X129945000Y-69805000D01*
X128405000Y-68275000D02*
X128405000Y-69845000D01*
X105475000Y-75545000D02*
X103355000Y-73425000D01*
X106085000Y-74535000D02*
X104365000Y-72815000D01*
X103355000Y-73425000D02*
X103355000Y-58215000D01*
X105285000Y-56285000D02*
X105585000Y-56285000D01*
X103355000Y-58215000D02*
X105285000Y-56285000D01*
X128405000Y-69845000D02*
X123715000Y-74535000D01*
G04 #@! TA.AperFunction,Conductor*
G36*
X140567702Y-50505617D02*
G01*
X140951771Y-50522386D01*
X140962506Y-50523326D01*
X141340971Y-50573152D01*
X141351597Y-50575025D01*
X141724284Y-50657648D01*
X141734710Y-50660442D01*
X142098765Y-50775227D01*
X142108911Y-50778920D01*
X142461578Y-50925000D01*
X142471369Y-50929566D01*
X142809942Y-51105816D01*
X142819310Y-51111224D01*
X143141244Y-51316318D01*
X143150105Y-51322523D01*
X143452930Y-51554889D01*
X143461217Y-51561843D01*
X143742635Y-51819715D01*
X143750284Y-51827364D01*
X144008156Y-52108782D01*
X144015110Y-52117069D01*
X144247476Y-52419894D01*
X144253681Y-52428755D01*
X144458775Y-52750689D01*
X144464183Y-52760057D01*
X144640430Y-53098623D01*
X144645002Y-53108427D01*
X144791075Y-53461078D01*
X144794775Y-53471244D01*
X144909554Y-53835278D01*
X144912354Y-53845727D01*
X144994971Y-54218389D01*
X144996849Y-54229042D01*
X145046671Y-54607473D01*
X145047614Y-54618249D01*
X145064382Y-55002297D01*
X145064500Y-55007706D01*
X145064500Y-73002293D01*
X145064382Y-73007702D01*
X145047614Y-73391750D01*
X145046671Y-73402526D01*
X144996849Y-73780957D01*
X144994971Y-73791610D01*
X144912354Y-74164272D01*
X144909554Y-74174721D01*
X144794775Y-74538755D01*
X144791075Y-74548921D01*
X144645002Y-74901572D01*
X144640430Y-74911376D01*
X144464183Y-75249942D01*
X144458775Y-75259310D01*
X144253681Y-75581244D01*
X144247476Y-75590105D01*
X144015110Y-75892930D01*
X144008156Y-75901217D01*
X143750284Y-76182635D01*
X143742635Y-76190284D01*
X143461217Y-76448156D01*
X143452930Y-76455110D01*
X143150105Y-76687476D01*
X143141244Y-76693681D01*
X142819310Y-76898775D01*
X142809942Y-76904183D01*
X142471376Y-77080430D01*
X142461572Y-77085002D01*
X142108921Y-77231075D01*
X142098755Y-77234775D01*
X141734721Y-77349554D01*
X141724272Y-77352354D01*
X141351610Y-77434971D01*
X141340957Y-77436849D01*
X140962526Y-77486671D01*
X140951750Y-77487614D01*
X140567703Y-77504382D01*
X140562294Y-77504500D01*
X105067706Y-77504500D01*
X105062297Y-77504382D01*
X104678249Y-77487614D01*
X104667473Y-77486671D01*
X104289042Y-77436849D01*
X104278389Y-77434971D01*
X103905727Y-77352354D01*
X103895278Y-77349554D01*
X103531244Y-77234775D01*
X103521078Y-77231075D01*
X103168427Y-77085002D01*
X103158623Y-77080430D01*
X102820057Y-76904183D01*
X102810689Y-76898775D01*
X102488755Y-76693681D01*
X102479894Y-76687476D01*
X102177069Y-76455110D01*
X102168782Y-76448156D01*
X101887364Y-76190284D01*
X101879715Y-76182635D01*
X101621843Y-75901217D01*
X101614889Y-75892930D01*
X101382523Y-75590105D01*
X101376318Y-75581244D01*
X101171224Y-75259310D01*
X101165816Y-75249942D01*
X100989569Y-74911376D01*
X100984997Y-74901572D01*
X100838924Y-74548921D01*
X100835224Y-74538755D01*
X100720442Y-74174710D01*
X100717648Y-74164284D01*
X100635025Y-73791597D01*
X100633152Y-73780971D01*
X100583326Y-73402506D01*
X100582386Y-73391771D01*
X100565618Y-73007702D01*
X100565500Y-73002293D01*
X100565500Y-58153394D01*
X102729500Y-58153394D01*
X102729500Y-58162080D01*
X102729500Y-73486611D01*
X102753535Y-73607444D01*
X102753540Y-73607461D01*
X102800685Y-73721280D01*
X102800687Y-73721283D01*
X102800688Y-73721286D01*
X102834915Y-73772509D01*
X102869142Y-73823733D01*
X102956267Y-73910858D01*
X102956270Y-73910860D01*
X102963554Y-73918144D01*
X104986016Y-75940606D01*
X104986045Y-75940637D01*
X105076264Y-76030856D01*
X105076267Y-76030858D01*
X105153190Y-76082256D01*
X105178715Y-76099312D01*
X105245397Y-76126932D01*
X105249185Y-76128501D01*
X105249193Y-76128505D01*
X105286427Y-76143927D01*
X105292548Y-76146463D01*
X105352971Y-76158481D01*
X105413393Y-76170500D01*
X124266607Y-76170500D01*
X124327029Y-76158481D01*
X124387452Y-76146463D01*
X124420792Y-76132652D01*
X124501286Y-76099312D01*
X124552509Y-76065084D01*
X124603733Y-76030858D01*
X124690858Y-75943733D01*
X124690859Y-75943731D01*
X124697925Y-75936665D01*
X124697928Y-75936661D01*
X130343729Y-70290860D01*
X130343733Y-70290858D01*
X130430858Y-70203733D01*
X130499311Y-70101286D01*
X130499312Y-70101285D01*
X130499313Y-70101282D01*
X130499315Y-70101279D01*
X130509672Y-70076272D01*
X130546463Y-69987451D01*
X130570500Y-69866607D01*
X130570500Y-69743393D01*
X130570500Y-68817350D01*
X130590185Y-68750311D01*
X130591398Y-68748459D01*
X130627504Y-68694422D01*
X130654394Y-68654179D01*
X130714737Y-68508497D01*
X130745500Y-68353842D01*
X130745500Y-68196158D01*
X130745500Y-68196155D01*
X130745499Y-68196153D01*
X130714738Y-68041510D01*
X130714737Y-68041503D01*
X130714735Y-68041498D01*
X130654397Y-67895827D01*
X130654390Y-67895814D01*
X130566789Y-67764711D01*
X130566786Y-67764707D01*
X130455292Y-67653213D01*
X130455288Y-67653210D01*
X130324185Y-67565609D01*
X130324172Y-67565602D01*
X130178501Y-67505264D01*
X130178489Y-67505261D01*
X130023845Y-67474500D01*
X130023842Y-67474500D01*
X129866158Y-67474500D01*
X129866155Y-67474500D01*
X129711510Y-67505261D01*
X129711498Y-67505264D01*
X129565827Y-67565602D01*
X129565814Y-67565609D01*
X129434711Y-67653210D01*
X129434707Y-67653213D01*
X129323213Y-67764707D01*
X129323210Y-67764711D01*
X129278102Y-67832220D01*
X129224489Y-67877025D01*
X129155164Y-67885732D01*
X129092137Y-67855577D01*
X129071898Y-67832220D01*
X129026789Y-67764711D01*
X129026786Y-67764707D01*
X128915292Y-67653213D01*
X128915288Y-67653210D01*
X128784185Y-67565609D01*
X128784172Y-67565602D01*
X128638501Y-67505264D01*
X128638489Y-67505261D01*
X128483845Y-67474500D01*
X128483842Y-67474500D01*
X128326158Y-67474500D01*
X128326155Y-67474500D01*
X128171510Y-67505261D01*
X128171498Y-67505264D01*
X128025827Y-67565602D01*
X128025814Y-67565609D01*
X127894711Y-67653210D01*
X127894707Y-67653213D01*
X127783213Y-67764707D01*
X127783210Y-67764711D01*
X127695609Y-67895814D01*
X127695602Y-67895827D01*
X127635264Y-68041498D01*
X127635261Y-68041510D01*
X127604500Y-68196153D01*
X127604500Y-68353846D01*
X127635261Y-68508489D01*
X127635264Y-68508501D01*
X127695602Y-68654172D01*
X127695609Y-68654184D01*
X127758602Y-68748459D01*
X127779480Y-68815136D01*
X127779500Y-68817350D01*
X127779500Y-69534547D01*
X127759815Y-69601586D01*
X127743181Y-69622228D01*
X123492229Y-73873181D01*
X123430906Y-73906666D01*
X123404548Y-73909500D01*
X106395453Y-73909500D01*
X106328414Y-73889815D01*
X106307772Y-73873181D01*
X105026819Y-72592228D01*
X104993334Y-72530905D01*
X104990500Y-72504547D01*
X104990500Y-70788870D01*
X110369500Y-70788870D01*
X110369500Y-71021129D01*
X110405831Y-71250514D01*
X110477601Y-71471400D01*
X110583039Y-71678331D01*
X110719551Y-71866224D01*
X110883776Y-72030449D01*
X111071669Y-72166961D01*
X111169436Y-72216776D01*
X111278599Y-72272398D01*
X111278601Y-72272398D01*
X111278604Y-72272400D01*
X111499486Y-72344169D01*
X111617668Y-72362886D01*
X111728871Y-72380500D01*
X111728876Y-72380500D01*
X111961129Y-72380500D01*
X112062502Y-72364443D01*
X112190514Y-72344169D01*
X112411396Y-72272400D01*
X112618331Y-72166961D01*
X112806224Y-72030449D01*
X112970449Y-71866224D01*
X113106961Y-71678331D01*
X113212400Y-71471396D01*
X113284169Y-71250514D01*
X113304443Y-71122502D01*
X113320500Y-71021129D01*
X113320500Y-70788870D01*
X113301232Y-70667222D01*
X113284169Y-70559486D01*
X113212400Y-70338604D01*
X113212398Y-70338601D01*
X113212398Y-70338599D01*
X113156776Y-70229436D01*
X113106961Y-70131669D01*
X112970449Y-69943776D01*
X112806224Y-69779551D01*
X112618331Y-69643039D01*
X112579452Y-69623229D01*
X112411400Y-69537601D01*
X112190514Y-69465831D01*
X111961129Y-69429500D01*
X111961124Y-69429500D01*
X111728876Y-69429500D01*
X111728871Y-69429500D01*
X111499485Y-69465831D01*
X111278599Y-69537601D01*
X111071668Y-69643039D01*
X110883773Y-69779553D01*
X110719553Y-69943773D01*
X110583039Y-70131668D01*
X110477601Y-70338599D01*
X110405831Y-70559485D01*
X110369500Y-70788870D01*
X104990500Y-70788870D01*
X104990500Y-67135451D01*
X105010185Y-67068412D01*
X105026814Y-67047775D01*
X105875719Y-66198870D01*
X135549500Y-66198870D01*
X135549500Y-66431129D01*
X135585831Y-66660514D01*
X135657601Y-66881400D01*
X135742372Y-67047770D01*
X135763039Y-67088331D01*
X135899551Y-67276224D01*
X136063776Y-67440449D01*
X136251669Y-67576961D01*
X136349436Y-67626776D01*
X136458599Y-67682398D01*
X136458601Y-67682398D01*
X136458604Y-67682400D01*
X136679486Y-67754169D01*
X136797668Y-67772886D01*
X136908871Y-67790500D01*
X136908876Y-67790500D01*
X137141129Y-67790500D01*
X137242502Y-67774443D01*
X137370514Y-67754169D01*
X137591396Y-67682400D01*
X137798331Y-67576961D01*
X137986224Y-67440449D01*
X138150449Y-67276224D01*
X138286961Y-67088331D01*
X138392400Y-66881396D01*
X138464169Y-66660514D01*
X138484443Y-66532502D01*
X138500500Y-66431129D01*
X138500500Y-66198870D01*
X138480047Y-66069737D01*
X138464169Y-65969486D01*
X138392400Y-65748604D01*
X138392398Y-65748601D01*
X138392398Y-65748599D01*
X138286960Y-65541668D01*
X138150449Y-65353776D01*
X137986224Y-65189551D01*
X137798331Y-65053039D01*
X137591400Y-64947601D01*
X137370514Y-64875831D01*
X137141129Y-64839500D01*
X137141124Y-64839500D01*
X136908876Y-64839500D01*
X136908871Y-64839500D01*
X136679485Y-64875831D01*
X136458599Y-64947601D01*
X136251668Y-65053039D01*
X136063773Y-65189553D01*
X135899553Y-65353773D01*
X135763039Y-65541668D01*
X135657601Y-65748599D01*
X135585831Y-65969485D01*
X135549500Y-66198870D01*
X105875719Y-66198870D01*
X108253797Y-63820791D01*
X108315118Y-63787308D01*
X108317128Y-63786889D01*
X108428497Y-63764737D01*
X108574179Y-63704394D01*
X108705289Y-63616789D01*
X108816789Y-63505289D01*
X108904394Y-63374179D01*
X108964737Y-63228497D01*
X108995500Y-63073842D01*
X108995500Y-62916158D01*
X108995500Y-62916155D01*
X108995499Y-62916153D01*
X108964738Y-62761510D01*
X108964738Y-62761508D01*
X108964737Y-62761503D01*
X108964735Y-62761498D01*
X108904397Y-62615827D01*
X108904390Y-62615814D01*
X108816789Y-62484711D01*
X108816786Y-62484707D01*
X108705292Y-62373213D01*
X108705288Y-62373210D01*
X108574185Y-62285609D01*
X108574172Y-62285602D01*
X108428501Y-62225264D01*
X108428489Y-62225261D01*
X108273845Y-62194500D01*
X108273842Y-62194500D01*
X108116158Y-62194500D01*
X108116155Y-62194500D01*
X107961510Y-62225261D01*
X107961498Y-62225264D01*
X107815827Y-62285602D01*
X107815814Y-62285609D01*
X107684711Y-62373210D01*
X107684707Y-62373213D01*
X107573213Y-62484707D01*
X107573210Y-62484711D01*
X107485609Y-62615814D01*
X107485602Y-62615827D01*
X107425264Y-62761498D01*
X107425261Y-62761508D01*
X107403141Y-62872714D01*
X107370756Y-62934625D01*
X107369205Y-62936203D01*
X104192181Y-66113228D01*
X104130858Y-66146713D01*
X104061166Y-66141729D01*
X104005233Y-66099857D01*
X103980816Y-66034393D01*
X103980500Y-66025547D01*
X103980500Y-58525451D01*
X104000185Y-58458412D01*
X104016814Y-58437775D01*
X105344965Y-57109623D01*
X105406286Y-57076140D01*
X105456837Y-57075689D01*
X105506157Y-57085500D01*
X105506158Y-57085500D01*
X105663844Y-57085500D01*
X105663845Y-57085499D01*
X105818497Y-57054737D01*
X105964179Y-56994394D01*
X106095289Y-56906789D01*
X106206789Y-56795289D01*
X106294394Y-56664179D01*
X106354737Y-56518497D01*
X106385500Y-56363842D01*
X106385500Y-56206158D01*
X106385500Y-56206155D01*
X106385499Y-56206153D01*
X106354738Y-56051510D01*
X106354737Y-56051503D01*
X106354735Y-56051498D01*
X106294397Y-55905827D01*
X106294390Y-55905814D01*
X106206789Y-55774711D01*
X106206786Y-55774707D01*
X106095292Y-55663213D01*
X106095288Y-55663210D01*
X105964185Y-55575609D01*
X105964172Y-55575602D01*
X105818501Y-55515264D01*
X105818489Y-55515261D01*
X105663845Y-55484500D01*
X105663842Y-55484500D01*
X105506158Y-55484500D01*
X105506155Y-55484500D01*
X105351510Y-55515261D01*
X105351498Y-55515264D01*
X105205827Y-55575602D01*
X105205814Y-55575609D01*
X105074714Y-55663208D01*
X105074709Y-55663212D01*
X105037768Y-55700153D01*
X104997546Y-55727030D01*
X104988715Y-55730688D01*
X104988711Y-55730690D01*
X104886271Y-55799138D01*
X104886269Y-55799139D01*
X104842706Y-55842703D01*
X104799142Y-55886267D01*
X102869144Y-57816264D01*
X102869138Y-57816272D01*
X102800692Y-57918705D01*
X102800684Y-57918719D01*
X102771042Y-57990284D01*
X102771040Y-57990289D01*
X102767347Y-57999207D01*
X102753537Y-58032548D01*
X102729500Y-58153394D01*
X100565500Y-58153394D01*
X100565500Y-55007706D01*
X100565618Y-55002297D01*
X100568377Y-54939108D01*
X100582386Y-54618226D01*
X100583326Y-54607495D01*
X100633152Y-54229025D01*
X100635025Y-54218405D01*
X100717649Y-53845709D01*
X100720440Y-53835295D01*
X100835230Y-53471227D01*
X100838917Y-53461095D01*
X100985003Y-53108412D01*
X100989561Y-53098638D01*
X101165822Y-52760045D01*
X101171217Y-52750700D01*
X101205967Y-52696153D01*
X109644500Y-52696153D01*
X109644500Y-52853846D01*
X109675261Y-53008489D01*
X109675264Y-53008501D01*
X109735602Y-53154172D01*
X109735609Y-53154184D01*
X109798602Y-53248459D01*
X109819480Y-53315136D01*
X109819500Y-53317350D01*
X109819500Y-61756611D01*
X109843535Y-61877444D01*
X109843540Y-61877461D01*
X109890685Y-61991280D01*
X109890687Y-61991283D01*
X109890688Y-61991286D01*
X109924915Y-62042509D01*
X109959142Y-62093733D01*
X110046267Y-62180858D01*
X110046270Y-62180860D01*
X110053554Y-62188144D01*
X113561016Y-65695606D01*
X113561045Y-65695637D01*
X113651264Y-65785856D01*
X113687829Y-65810288D01*
X113687831Y-65810289D01*
X113753715Y-65854312D01*
X113753717Y-65854313D01*
X113753716Y-65854313D01*
X113769720Y-65860941D01*
X113799704Y-65873361D01*
X113867548Y-65901463D01*
X113927971Y-65913481D01*
X113988393Y-65925500D01*
X113988394Y-65925500D01*
X114057650Y-65925500D01*
X114124689Y-65945185D01*
X114126541Y-65946398D01*
X114220821Y-66009394D01*
X114220823Y-66009395D01*
X114220827Y-66009397D01*
X114281174Y-66034393D01*
X114366503Y-66069737D01*
X114521153Y-66100499D01*
X114521156Y-66100500D01*
X114521158Y-66100500D01*
X114678844Y-66100500D01*
X114820176Y-66072387D01*
X114820176Y-66072386D01*
X114833497Y-66069737D01*
X114979179Y-66009394D01*
X115110289Y-65921789D01*
X115221789Y-65810289D01*
X115309394Y-65679179D01*
X115369737Y-65533497D01*
X115400500Y-65378842D01*
X115400500Y-65221158D01*
X115400500Y-65221155D01*
X115400499Y-65221153D01*
X115369738Y-65066510D01*
X115369737Y-65066503D01*
X115320487Y-64947601D01*
X115309397Y-64920827D01*
X115309390Y-64920814D01*
X115221789Y-64789711D01*
X115221786Y-64789707D01*
X115110292Y-64678213D01*
X115110288Y-64678210D01*
X114979185Y-64590609D01*
X114979172Y-64590602D01*
X114833501Y-64530264D01*
X114833489Y-64530261D01*
X114678845Y-64499500D01*
X114678842Y-64499500D01*
X114521158Y-64499500D01*
X114521155Y-64499500D01*
X114366511Y-64530260D01*
X114366501Y-64530263D01*
X114300458Y-64557618D01*
X114230988Y-64565085D01*
X114168510Y-64533809D01*
X114165327Y-64530737D01*
X111106819Y-61472229D01*
X111073334Y-61410906D01*
X111070500Y-61384548D01*
X111070500Y-53317350D01*
X111090185Y-53250311D01*
X111091398Y-53248459D01*
X111091809Y-53247843D01*
X111154394Y-53154179D01*
X111214737Y-53008497D01*
X111245500Y-52853842D01*
X111245500Y-52696158D01*
X111245500Y-52696155D01*
X111245499Y-52696153D01*
X111214737Y-52541503D01*
X111166146Y-52424193D01*
X111154397Y-52395827D01*
X111154390Y-52395814D01*
X111066789Y-52264711D01*
X111066786Y-52264707D01*
X110955292Y-52153213D01*
X110955288Y-52153210D01*
X110824185Y-52065609D01*
X110824172Y-52065602D01*
X110678501Y-52005264D01*
X110678489Y-52005261D01*
X110523845Y-51974500D01*
X110523842Y-51974500D01*
X110366158Y-51974500D01*
X110366155Y-51974500D01*
X110211510Y-52005261D01*
X110211498Y-52005264D01*
X110065827Y-52065602D01*
X110065814Y-52065609D01*
X109934711Y-52153210D01*
X109934707Y-52153213D01*
X109823213Y-52264707D01*
X109823210Y-52264711D01*
X109735609Y-52395814D01*
X109735602Y-52395827D01*
X109675264Y-52541498D01*
X109675261Y-52541510D01*
X109644500Y-52696153D01*
X101205967Y-52696153D01*
X101376325Y-52428744D01*
X101382515Y-52419905D01*
X101614896Y-52117060D01*
X101621834Y-52108791D01*
X101879726Y-51827352D01*
X101887352Y-51819726D01*
X102168791Y-51561834D01*
X102177060Y-51554896D01*
X102479905Y-51322515D01*
X102488744Y-51316325D01*
X102810700Y-51111217D01*
X102820045Y-51105822D01*
X103158638Y-50929561D01*
X103168412Y-50925003D01*
X103521095Y-50778917D01*
X103531227Y-50775230D01*
X103895295Y-50660440D01*
X103905709Y-50657649D01*
X104278405Y-50575025D01*
X104289025Y-50573152D01*
X104667495Y-50523326D01*
X104678226Y-50522386D01*
X105062297Y-50505617D01*
X105067706Y-50505500D01*
X105130892Y-50505500D01*
X140499108Y-50505500D01*
X140562294Y-50505500D01*
X140567702Y-50505617D01*
G37*
G04 #@! TD.AperFunction*
M02*
