M48
; DRILL file {KiCad 9.0.2-9.0.2-0~ubuntu22.04.1} date 2025-06-26T23:23:24-0400
; FORMAT={-:-/ absolute / metric / decimal}
; #@! TF.CreationDate,2025-06-26T23:23:24-04:00
; #@! TF.GenerationSoftware,Kicad,Pcbnew,9.0.2-9.0.2-0~ubuntu22.04.1
; #@! TF.FileFunction,Plated,1,2,PTH
FMAT,2
METRIC
; #@! TA.AperFunction,Plated,PTH,ViaDrill
T1C0.300
; #@! TA.AperFunction,Plated,PTH,ComponentDrill
T2C1.300
%
G90
G05
T1
X105.585Y-56.285
X108.195Y-62.995
X110.445Y-52.775
X111.73Y-54.915
X112.84Y-54.905
X113.96Y-54.915
X114.6Y-65.3
X119.685Y-63.305
X119.685Y-64.555
X119.685Y-65.805
X119.685Y-67.055
X119.685Y-68.305
X120.935Y-63.305
X120.935Y-64.555
X120.935Y-65.805
X120.935Y-67.055
X120.935Y-68.305
X122.185Y-63.305
X122.185Y-64.555
X122.185Y-65.805
X122.185Y-67.055
X122.185Y-68.305
X123.435Y-63.305
X123.435Y-64.555
X123.435Y-65.805
X123.435Y-67.055
X123.435Y-68.305
X124.685Y-63.305
X124.685Y-64.555
X124.685Y-65.805
X124.685Y-67.055
X124.685Y-68.305
X128.405Y-68.275
X129.945Y-68.275
T2
X106.845Y-70.905
X111.845Y-70.905
X137.025Y-66.315
X137.025Y-71.315
M30
