%TF.GenerationSoftware,KiCad,Pcbnew,9.0.2-9.0.2-0~ubuntu22.04.1*%
%TF.CreationDate,2025-06-24T18:02:21-04:00*%
%TF.ProjectId,6-13-2025_BuckConverter,362d3133-2d32-4303-9235-5f4275636b43,rev?*%
%TF.SameCoordinates,Original*%
%TF.FileFunction,Legend,Top*%
%TF.FilePolarity,Positive*%
%FSLAX46Y46*%
G04 Gerber Fmt 4.6, Leading zero omitted, Abs format (unit mm)*
G04 Created by KiCad (PCBNEW 9.0.2-9.0.2-0~ubuntu22.04.1) date 2025-06-24 18:02:21*
%MOMM*%
%LPD*%
G01*
G04 APERTURE LIST*
%ADD10C,0.062500*%
%ADD11C,0.150000*%
%ADD12C,0.100000*%
%ADD13C,0.093750*%
%ADD14C,0.200000*%
%ADD15C,0.400000*%
G04 APERTURE END LIST*
D10*
X141250000Y-53750000D02*
X141000000Y-54000000D01*
X140750000Y-54000000D01*
X140750000Y-55250000D01*
X139250000Y-56750000D01*
X138250000Y-56750000D01*
X138000000Y-56500000D01*
X138000000Y-56250000D01*
X138000000Y-56000000D01*
X136750000Y-57250000D01*
X136750000Y-58750000D01*
X135500000Y-58750000D01*
X135000000Y-58250000D01*
X135000000Y-57750000D01*
X136750000Y-56000000D01*
X136000000Y-55250000D01*
X135250000Y-55250000D01*
X135000000Y-55000000D01*
X136000000Y-54000000D01*
X139250000Y-54000000D01*
X139750000Y-54500000D01*
X140000000Y-54250000D01*
X140000000Y-52750000D01*
X140250000Y-52750000D01*
X141250000Y-53750000D01*
G36*
X141250000Y-53750000D02*
G01*
X141000000Y-54000000D01*
X140750000Y-54000000D01*
X140750000Y-55250000D01*
X139250000Y-56750000D01*
X138250000Y-56750000D01*
X138000000Y-56500000D01*
X138000000Y-56250000D01*
X138000000Y-56000000D01*
X136750000Y-57250000D01*
X136750000Y-58750000D01*
X135500000Y-58750000D01*
X135000000Y-58250000D01*
X135000000Y-57750000D01*
X136750000Y-56000000D01*
X136000000Y-55250000D01*
X135250000Y-55250000D01*
X135000000Y-55000000D01*
X136000000Y-54000000D01*
X139250000Y-54000000D01*
X139750000Y-54500000D01*
X140000000Y-54250000D01*
X140000000Y-52750000D01*
X140250000Y-52750000D01*
X141250000Y-53750000D01*
G37*
D11*
X104271779Y-76244819D02*
X104271779Y-75244819D01*
X104747969Y-76244819D02*
X104747969Y-75244819D01*
X104747969Y-75244819D02*
X105319397Y-76244819D01*
X105319397Y-76244819D02*
X105319397Y-75244819D01*
X141883866Y-71828220D02*
X141883866Y-71066316D01*
X141671779Y-66383866D02*
X142433684Y-66383866D01*
X142052731Y-66764819D02*
X142052731Y-66002914D01*
X106321779Y-75253866D02*
X107083684Y-75253866D01*
X111551779Y-75493866D02*
X112313684Y-75493866D01*
X111932731Y-75874819D02*
X111932731Y-75112914D01*
X141604819Y-75627744D02*
X141604819Y-75437268D01*
X141604819Y-75437268D02*
X141652438Y-75342030D01*
X141652438Y-75342030D02*
X141747676Y-75246792D01*
X141747676Y-75246792D02*
X141938152Y-75199173D01*
X141938152Y-75199173D02*
X142271485Y-75199173D01*
X142271485Y-75199173D02*
X142461961Y-75246792D01*
X142461961Y-75246792D02*
X142557200Y-75342030D01*
X142557200Y-75342030D02*
X142604819Y-75437268D01*
X142604819Y-75437268D02*
X142604819Y-75627744D01*
X142604819Y-75627744D02*
X142557200Y-75722982D01*
X142557200Y-75722982D02*
X142461961Y-75818220D01*
X142461961Y-75818220D02*
X142271485Y-75865839D01*
X142271485Y-75865839D02*
X141938152Y-75865839D01*
X141938152Y-75865839D02*
X141747676Y-75818220D01*
X141747676Y-75818220D02*
X141652438Y-75722982D01*
X141652438Y-75722982D02*
X141604819Y-75627744D01*
X141604819Y-74770601D02*
X142414342Y-74770601D01*
X142414342Y-74770601D02*
X142509580Y-74722982D01*
X142509580Y-74722982D02*
X142557200Y-74675363D01*
X142557200Y-74675363D02*
X142604819Y-74580125D01*
X142604819Y-74580125D02*
X142604819Y-74389649D01*
X142604819Y-74389649D02*
X142557200Y-74294411D01*
X142557200Y-74294411D02*
X142509580Y-74246792D01*
X142509580Y-74246792D02*
X142414342Y-74199173D01*
X142414342Y-74199173D02*
X141604819Y-74199173D01*
X141604819Y-73865839D02*
X141604819Y-73294411D01*
X142604819Y-73580125D02*
X141604819Y-73580125D01*
D12*
X125888333Y-54447419D02*
X125412143Y-54447419D01*
X125412143Y-54447419D02*
X125412143Y-53447419D01*
X126745476Y-54447419D02*
X126174048Y-54447419D01*
X126459762Y-54447419D02*
X126459762Y-53447419D01*
X126459762Y-53447419D02*
X126364524Y-53590276D01*
X126364524Y-53590276D02*
X126269286Y-53685514D01*
X126269286Y-53685514D02*
X126174048Y-53733133D01*
D10*
X112891666Y-51553059D02*
X112725000Y-51314964D01*
X112605952Y-51553059D02*
X112605952Y-51053059D01*
X112605952Y-51053059D02*
X112796428Y-51053059D01*
X112796428Y-51053059D02*
X112844047Y-51076869D01*
X112844047Y-51076869D02*
X112867857Y-51100678D01*
X112867857Y-51100678D02*
X112891666Y-51148297D01*
X112891666Y-51148297D02*
X112891666Y-51219726D01*
X112891666Y-51219726D02*
X112867857Y-51267345D01*
X112867857Y-51267345D02*
X112844047Y-51291154D01*
X112844047Y-51291154D02*
X112796428Y-51314964D01*
X112796428Y-51314964D02*
X112605952Y-51314964D01*
X113058333Y-51053059D02*
X113367857Y-51053059D01*
X113367857Y-51053059D02*
X113201190Y-51243535D01*
X113201190Y-51243535D02*
X113272619Y-51243535D01*
X113272619Y-51243535D02*
X113320238Y-51267345D01*
X113320238Y-51267345D02*
X113344047Y-51291154D01*
X113344047Y-51291154D02*
X113367857Y-51338773D01*
X113367857Y-51338773D02*
X113367857Y-51457821D01*
X113367857Y-51457821D02*
X113344047Y-51505440D01*
X113344047Y-51505440D02*
X113320238Y-51529250D01*
X113320238Y-51529250D02*
X113272619Y-51553059D01*
X113272619Y-51553059D02*
X113129762Y-51553059D01*
X113129762Y-51553059D02*
X113082143Y-51529250D01*
X113082143Y-51529250D02*
X113058333Y-51505440D01*
X116533059Y-52798333D02*
X116294964Y-52964999D01*
X116533059Y-53084047D02*
X116033059Y-53084047D01*
X116033059Y-53084047D02*
X116033059Y-52893571D01*
X116033059Y-52893571D02*
X116056869Y-52845952D01*
X116056869Y-52845952D02*
X116080678Y-52822142D01*
X116080678Y-52822142D02*
X116128297Y-52798333D01*
X116128297Y-52798333D02*
X116199726Y-52798333D01*
X116199726Y-52798333D02*
X116247345Y-52822142D01*
X116247345Y-52822142D02*
X116271154Y-52845952D01*
X116271154Y-52845952D02*
X116294964Y-52893571D01*
X116294964Y-52893571D02*
X116294964Y-53084047D01*
X116199726Y-52369761D02*
X116533059Y-52369761D01*
X116009250Y-52488809D02*
X116366392Y-52607856D01*
X116366392Y-52607856D02*
X116366392Y-52298333D01*
X113845440Y-59918333D02*
X113869250Y-59942142D01*
X113869250Y-59942142D02*
X113893059Y-60013571D01*
X113893059Y-60013571D02*
X113893059Y-60061190D01*
X113893059Y-60061190D02*
X113869250Y-60132618D01*
X113869250Y-60132618D02*
X113821630Y-60180237D01*
X113821630Y-60180237D02*
X113774011Y-60204047D01*
X113774011Y-60204047D02*
X113678773Y-60227856D01*
X113678773Y-60227856D02*
X113607345Y-60227856D01*
X113607345Y-60227856D02*
X113512107Y-60204047D01*
X113512107Y-60204047D02*
X113464488Y-60180237D01*
X113464488Y-60180237D02*
X113416869Y-60132618D01*
X113416869Y-60132618D02*
X113393059Y-60061190D01*
X113393059Y-60061190D02*
X113393059Y-60013571D01*
X113393059Y-60013571D02*
X113416869Y-59942142D01*
X113416869Y-59942142D02*
X113440678Y-59918333D01*
X113393059Y-59489761D02*
X113393059Y-59584999D01*
X113393059Y-59584999D02*
X113416869Y-59632618D01*
X113416869Y-59632618D02*
X113440678Y-59656428D01*
X113440678Y-59656428D02*
X113512107Y-59704047D01*
X113512107Y-59704047D02*
X113607345Y-59727856D01*
X113607345Y-59727856D02*
X113797821Y-59727856D01*
X113797821Y-59727856D02*
X113845440Y-59704047D01*
X113845440Y-59704047D02*
X113869250Y-59680237D01*
X113869250Y-59680237D02*
X113893059Y-59632618D01*
X113893059Y-59632618D02*
X113893059Y-59537380D01*
X113893059Y-59537380D02*
X113869250Y-59489761D01*
X113869250Y-59489761D02*
X113845440Y-59465952D01*
X113845440Y-59465952D02*
X113797821Y-59442142D01*
X113797821Y-59442142D02*
X113678773Y-59442142D01*
X113678773Y-59442142D02*
X113631154Y-59465952D01*
X113631154Y-59465952D02*
X113607345Y-59489761D01*
X113607345Y-59489761D02*
X113583535Y-59537380D01*
X113583535Y-59537380D02*
X113583535Y-59632618D01*
X113583535Y-59632618D02*
X113607345Y-59680237D01*
X113607345Y-59680237D02*
X113631154Y-59704047D01*
X113631154Y-59704047D02*
X113678773Y-59727856D01*
X112413059Y-59798333D02*
X112174964Y-59964999D01*
X112413059Y-60084047D02*
X111913059Y-60084047D01*
X111913059Y-60084047D02*
X111913059Y-59893571D01*
X111913059Y-59893571D02*
X111936869Y-59845952D01*
X111936869Y-59845952D02*
X111960678Y-59822142D01*
X111960678Y-59822142D02*
X112008297Y-59798333D01*
X112008297Y-59798333D02*
X112079726Y-59798333D01*
X112079726Y-59798333D02*
X112127345Y-59822142D01*
X112127345Y-59822142D02*
X112151154Y-59845952D01*
X112151154Y-59845952D02*
X112174964Y-59893571D01*
X112174964Y-59893571D02*
X112174964Y-60084047D01*
X111960678Y-59607856D02*
X111936869Y-59584047D01*
X111936869Y-59584047D02*
X111913059Y-59536428D01*
X111913059Y-59536428D02*
X111913059Y-59417380D01*
X111913059Y-59417380D02*
X111936869Y-59369761D01*
X111936869Y-59369761D02*
X111960678Y-59345952D01*
X111960678Y-59345952D02*
X112008297Y-59322142D01*
X112008297Y-59322142D02*
X112055916Y-59322142D01*
X112055916Y-59322142D02*
X112127345Y-59345952D01*
X112127345Y-59345952D02*
X112413059Y-59631666D01*
X112413059Y-59631666D02*
X112413059Y-59322142D01*
D11*
X136454819Y-62583333D02*
X137169104Y-62583333D01*
X137169104Y-62583333D02*
X137311961Y-62630952D01*
X137311961Y-62630952D02*
X137407200Y-62726190D01*
X137407200Y-62726190D02*
X137454819Y-62869047D01*
X137454819Y-62869047D02*
X137454819Y-62964285D01*
X136550057Y-62154761D02*
X136502438Y-62107142D01*
X136502438Y-62107142D02*
X136454819Y-62011904D01*
X136454819Y-62011904D02*
X136454819Y-61773809D01*
X136454819Y-61773809D02*
X136502438Y-61678571D01*
X136502438Y-61678571D02*
X136550057Y-61630952D01*
X136550057Y-61630952D02*
X136645295Y-61583333D01*
X136645295Y-61583333D02*
X136740533Y-61583333D01*
X136740533Y-61583333D02*
X136883390Y-61630952D01*
X136883390Y-61630952D02*
X137454819Y-62202380D01*
X137454819Y-62202380D02*
X137454819Y-61583333D01*
D13*
X131092089Y-75750000D02*
X131092089Y-76107143D01*
X131092089Y-76107143D02*
X131449232Y-76142857D01*
X131449232Y-76142857D02*
X131413517Y-76107143D01*
X131413517Y-76107143D02*
X131377803Y-76035715D01*
X131377803Y-76035715D02*
X131377803Y-75857143D01*
X131377803Y-75857143D02*
X131413517Y-75785715D01*
X131413517Y-75785715D02*
X131449232Y-75750000D01*
X131449232Y-75750000D02*
X131520660Y-75714286D01*
X131520660Y-75714286D02*
X131699232Y-75714286D01*
X131699232Y-75714286D02*
X131770660Y-75750000D01*
X131770660Y-75750000D02*
X131806375Y-75785715D01*
X131806375Y-75785715D02*
X131842089Y-75857143D01*
X131842089Y-75857143D02*
X131842089Y-76035715D01*
X131842089Y-76035715D02*
X131806375Y-76107143D01*
X131806375Y-76107143D02*
X131770660Y-76142857D01*
X131092089Y-75500000D02*
X131842089Y-75250000D01*
X131842089Y-75250000D02*
X131092089Y-75000000D01*
X131092089Y-74250000D02*
X131092089Y-73785714D01*
X131092089Y-73785714D02*
X131377803Y-74035714D01*
X131377803Y-74035714D02*
X131377803Y-73928571D01*
X131377803Y-73928571D02*
X131413517Y-73857143D01*
X131413517Y-73857143D02*
X131449232Y-73821428D01*
X131449232Y-73821428D02*
X131520660Y-73785714D01*
X131520660Y-73785714D02*
X131699232Y-73785714D01*
X131699232Y-73785714D02*
X131770660Y-73821428D01*
X131770660Y-73821428D02*
X131806375Y-73857143D01*
X131806375Y-73857143D02*
X131842089Y-73928571D01*
X131842089Y-73928571D02*
X131842089Y-74142857D01*
X131842089Y-74142857D02*
X131806375Y-74214285D01*
X131806375Y-74214285D02*
X131770660Y-74250000D01*
X131627803Y-73499999D02*
X131627803Y-73142857D01*
X131842089Y-73571428D02*
X131092089Y-73321428D01*
X131092089Y-73321428D02*
X131842089Y-73071428D01*
X131842089Y-72249999D02*
X131092089Y-72249999D01*
X131092089Y-72249999D02*
X131627803Y-71999999D01*
X131627803Y-71999999D02*
X131092089Y-71749999D01*
X131092089Y-71749999D02*
X131842089Y-71749999D01*
X131627803Y-71428570D02*
X131627803Y-71071428D01*
X131842089Y-71499999D02*
X131092089Y-71249999D01*
X131092089Y-71249999D02*
X131842089Y-70999999D01*
X131092089Y-70821428D02*
X131842089Y-70321428D01*
X131092089Y-70321428D02*
X131842089Y-70821428D01*
D11*
X115451666Y-70429819D02*
X115451666Y-71144104D01*
X115451666Y-71144104D02*
X115404047Y-71286961D01*
X115404047Y-71286961D02*
X115308809Y-71382200D01*
X115308809Y-71382200D02*
X115165952Y-71429819D01*
X115165952Y-71429819D02*
X115070714Y-71429819D01*
X116451666Y-71429819D02*
X115880238Y-71429819D01*
X116165952Y-71429819D02*
X116165952Y-70429819D01*
X116165952Y-70429819D02*
X116070714Y-70572676D01*
X116070714Y-70572676D02*
X115975476Y-70667914D01*
X115975476Y-70667914D02*
X115880238Y-70715533D01*
X102885951Y-65119819D02*
X102695475Y-65119819D01*
X102695475Y-65119819D02*
X102600237Y-65167438D01*
X102600237Y-65167438D02*
X102552618Y-65215057D01*
X102552618Y-65215057D02*
X102457380Y-65357914D01*
X102457380Y-65357914D02*
X102409761Y-65548390D01*
X102409761Y-65548390D02*
X102409761Y-65929342D01*
X102409761Y-65929342D02*
X102457380Y-66024580D01*
X102457380Y-66024580D02*
X102504999Y-66072200D01*
X102504999Y-66072200D02*
X102600237Y-66119819D01*
X102600237Y-66119819D02*
X102790713Y-66119819D01*
X102790713Y-66119819D02*
X102885951Y-66072200D01*
X102885951Y-66072200D02*
X102933570Y-66024580D01*
X102933570Y-66024580D02*
X102981189Y-65929342D01*
X102981189Y-65929342D02*
X102981189Y-65691247D01*
X102981189Y-65691247D02*
X102933570Y-65596009D01*
X102933570Y-65596009D02*
X102885951Y-65548390D01*
X102885951Y-65548390D02*
X102790713Y-65500771D01*
X102790713Y-65500771D02*
X102600237Y-65500771D01*
X102600237Y-65500771D02*
X102504999Y-65548390D01*
X102504999Y-65548390D02*
X102457380Y-65596009D01*
X102457380Y-65596009D02*
X102409761Y-65691247D01*
X103266904Y-65119819D02*
X103600237Y-66119819D01*
X103600237Y-66119819D02*
X103933570Y-65119819D01*
X104885952Y-65453152D02*
X105266904Y-65453152D01*
X105028809Y-65119819D02*
X105028809Y-65976961D01*
X105028809Y-65976961D02*
X105076428Y-66072200D01*
X105076428Y-66072200D02*
X105171666Y-66119819D01*
X105171666Y-66119819D02*
X105266904Y-66119819D01*
X105743095Y-66119819D02*
X105647857Y-66072200D01*
X105647857Y-66072200D02*
X105600238Y-66024580D01*
X105600238Y-66024580D02*
X105552619Y-65929342D01*
X105552619Y-65929342D02*
X105552619Y-65643628D01*
X105552619Y-65643628D02*
X105600238Y-65548390D01*
X105600238Y-65548390D02*
X105647857Y-65500771D01*
X105647857Y-65500771D02*
X105743095Y-65453152D01*
X105743095Y-65453152D02*
X105885952Y-65453152D01*
X105885952Y-65453152D02*
X105981190Y-65500771D01*
X105981190Y-65500771D02*
X106028809Y-65548390D01*
X106028809Y-65548390D02*
X106076428Y-65643628D01*
X106076428Y-65643628D02*
X106076428Y-65929342D01*
X106076428Y-65929342D02*
X106028809Y-66024580D01*
X106028809Y-66024580D02*
X105981190Y-66072200D01*
X105981190Y-66072200D02*
X105885952Y-66119819D01*
X105885952Y-66119819D02*
X105743095Y-66119819D01*
X107171667Y-65119819D02*
X107790714Y-65119819D01*
X107790714Y-65119819D02*
X107457381Y-65500771D01*
X107457381Y-65500771D02*
X107600238Y-65500771D01*
X107600238Y-65500771D02*
X107695476Y-65548390D01*
X107695476Y-65548390D02*
X107743095Y-65596009D01*
X107743095Y-65596009D02*
X107790714Y-65691247D01*
X107790714Y-65691247D02*
X107790714Y-65929342D01*
X107790714Y-65929342D02*
X107743095Y-66024580D01*
X107743095Y-66024580D02*
X107695476Y-66072200D01*
X107695476Y-66072200D02*
X107600238Y-66119819D01*
X107600238Y-66119819D02*
X107314524Y-66119819D01*
X107314524Y-66119819D02*
X107219286Y-66072200D01*
X107219286Y-66072200D02*
X107171667Y-66024580D01*
X108695476Y-65119819D02*
X108219286Y-65119819D01*
X108219286Y-65119819D02*
X108171667Y-65596009D01*
X108171667Y-65596009D02*
X108219286Y-65548390D01*
X108219286Y-65548390D02*
X108314524Y-65500771D01*
X108314524Y-65500771D02*
X108552619Y-65500771D01*
X108552619Y-65500771D02*
X108647857Y-65548390D01*
X108647857Y-65548390D02*
X108695476Y-65596009D01*
X108695476Y-65596009D02*
X108743095Y-65691247D01*
X108743095Y-65691247D02*
X108743095Y-65929342D01*
X108743095Y-65929342D02*
X108695476Y-66024580D01*
X108695476Y-66024580D02*
X108647857Y-66072200D01*
X108647857Y-66072200D02*
X108552619Y-66119819D01*
X108552619Y-66119819D02*
X108314524Y-66119819D01*
X108314524Y-66119819D02*
X108219286Y-66072200D01*
X108219286Y-66072200D02*
X108171667Y-66024580D01*
X109028810Y-65119819D02*
X109362143Y-66119819D01*
X109362143Y-66119819D02*
X109695476Y-65119819D01*
D10*
X109525440Y-54988333D02*
X109549250Y-55012142D01*
X109549250Y-55012142D02*
X109573059Y-55083571D01*
X109573059Y-55083571D02*
X109573059Y-55131190D01*
X109573059Y-55131190D02*
X109549250Y-55202618D01*
X109549250Y-55202618D02*
X109501630Y-55250237D01*
X109501630Y-55250237D02*
X109454011Y-55274047D01*
X109454011Y-55274047D02*
X109358773Y-55297856D01*
X109358773Y-55297856D02*
X109287345Y-55297856D01*
X109287345Y-55297856D02*
X109192107Y-55274047D01*
X109192107Y-55274047D02*
X109144488Y-55250237D01*
X109144488Y-55250237D02*
X109096869Y-55202618D01*
X109096869Y-55202618D02*
X109073059Y-55131190D01*
X109073059Y-55131190D02*
X109073059Y-55083571D01*
X109073059Y-55083571D02*
X109096869Y-55012142D01*
X109096869Y-55012142D02*
X109120678Y-54988333D01*
X109073059Y-54821666D02*
X109073059Y-54488333D01*
X109073059Y-54488333D02*
X109573059Y-54702618D01*
X107213059Y-54988333D02*
X106974964Y-55154999D01*
X107213059Y-55274047D02*
X106713059Y-55274047D01*
X106713059Y-55274047D02*
X106713059Y-55083571D01*
X106713059Y-55083571D02*
X106736869Y-55035952D01*
X106736869Y-55035952D02*
X106760678Y-55012142D01*
X106760678Y-55012142D02*
X106808297Y-54988333D01*
X106808297Y-54988333D02*
X106879726Y-54988333D01*
X106879726Y-54988333D02*
X106927345Y-55012142D01*
X106927345Y-55012142D02*
X106951154Y-55035952D01*
X106951154Y-55035952D02*
X106974964Y-55083571D01*
X106974964Y-55083571D02*
X106974964Y-55274047D01*
X107213059Y-54512142D02*
X107213059Y-54797856D01*
X107213059Y-54654999D02*
X106713059Y-54654999D01*
X106713059Y-54654999D02*
X106784488Y-54702618D01*
X106784488Y-54702618D02*
X106832107Y-54750237D01*
X106832107Y-54750237D02*
X106855916Y-54797856D01*
X106791190Y-60873059D02*
X106624524Y-60634964D01*
X106505476Y-60873059D02*
X106505476Y-60373059D01*
X106505476Y-60373059D02*
X106695952Y-60373059D01*
X106695952Y-60373059D02*
X106743571Y-60396869D01*
X106743571Y-60396869D02*
X106767381Y-60420678D01*
X106767381Y-60420678D02*
X106791190Y-60468297D01*
X106791190Y-60468297D02*
X106791190Y-60539726D01*
X106791190Y-60539726D02*
X106767381Y-60587345D01*
X106767381Y-60587345D02*
X106743571Y-60611154D01*
X106743571Y-60611154D02*
X106695952Y-60634964D01*
X106695952Y-60634964D02*
X106505476Y-60634964D01*
X106934048Y-60373059D02*
X107219762Y-60373059D01*
X107076905Y-60873059D02*
X107076905Y-60373059D01*
X107648333Y-60873059D02*
X107362619Y-60873059D01*
X107505476Y-60873059D02*
X107505476Y-60373059D01*
X107505476Y-60373059D02*
X107457857Y-60444488D01*
X107457857Y-60444488D02*
X107410238Y-60492107D01*
X107410238Y-60492107D02*
X107362619Y-60515916D01*
X111221666Y-64473059D02*
X111055000Y-64234964D01*
X110935952Y-64473059D02*
X110935952Y-63973059D01*
X110935952Y-63973059D02*
X111126428Y-63973059D01*
X111126428Y-63973059D02*
X111174047Y-63996869D01*
X111174047Y-63996869D02*
X111197857Y-64020678D01*
X111197857Y-64020678D02*
X111221666Y-64068297D01*
X111221666Y-64068297D02*
X111221666Y-64139726D01*
X111221666Y-64139726D02*
X111197857Y-64187345D01*
X111197857Y-64187345D02*
X111174047Y-64211154D01*
X111174047Y-64211154D02*
X111126428Y-64234964D01*
X111126428Y-64234964D02*
X110935952Y-64234964D01*
X111674047Y-63973059D02*
X111435952Y-63973059D01*
X111435952Y-63973059D02*
X111412143Y-64211154D01*
X111412143Y-64211154D02*
X111435952Y-64187345D01*
X111435952Y-64187345D02*
X111483571Y-64163535D01*
X111483571Y-64163535D02*
X111602619Y-64163535D01*
X111602619Y-64163535D02*
X111650238Y-64187345D01*
X111650238Y-64187345D02*
X111674047Y-64211154D01*
X111674047Y-64211154D02*
X111697857Y-64258773D01*
X111697857Y-64258773D02*
X111697857Y-64377821D01*
X111697857Y-64377821D02*
X111674047Y-64425440D01*
X111674047Y-64425440D02*
X111650238Y-64449250D01*
X111650238Y-64449250D02*
X111602619Y-64473059D01*
X111602619Y-64473059D02*
X111483571Y-64473059D01*
X111483571Y-64473059D02*
X111435952Y-64449250D01*
X111435952Y-64449250D02*
X111412143Y-64425440D01*
X113591666Y-65645440D02*
X113567857Y-65669250D01*
X113567857Y-65669250D02*
X113496428Y-65693059D01*
X113496428Y-65693059D02*
X113448809Y-65693059D01*
X113448809Y-65693059D02*
X113377381Y-65669250D01*
X113377381Y-65669250D02*
X113329762Y-65621630D01*
X113329762Y-65621630D02*
X113305952Y-65574011D01*
X113305952Y-65574011D02*
X113282143Y-65478773D01*
X113282143Y-65478773D02*
X113282143Y-65407345D01*
X113282143Y-65407345D02*
X113305952Y-65312107D01*
X113305952Y-65312107D02*
X113329762Y-65264488D01*
X113329762Y-65264488D02*
X113377381Y-65216869D01*
X113377381Y-65216869D02*
X113448809Y-65193059D01*
X113448809Y-65193059D02*
X113496428Y-65193059D01*
X113496428Y-65193059D02*
X113567857Y-65216869D01*
X113567857Y-65216869D02*
X113591666Y-65240678D01*
X114067857Y-65693059D02*
X113782143Y-65693059D01*
X113925000Y-65693059D02*
X113925000Y-65193059D01*
X113925000Y-65193059D02*
X113877381Y-65264488D01*
X113877381Y-65264488D02*
X113829762Y-65312107D01*
X113829762Y-65312107D02*
X113782143Y-65335916D01*
X113551666Y-63775440D02*
X113527857Y-63799250D01*
X113527857Y-63799250D02*
X113456428Y-63823059D01*
X113456428Y-63823059D02*
X113408809Y-63823059D01*
X113408809Y-63823059D02*
X113337381Y-63799250D01*
X113337381Y-63799250D02*
X113289762Y-63751630D01*
X113289762Y-63751630D02*
X113265952Y-63704011D01*
X113265952Y-63704011D02*
X113242143Y-63608773D01*
X113242143Y-63608773D02*
X113242143Y-63537345D01*
X113242143Y-63537345D02*
X113265952Y-63442107D01*
X113265952Y-63442107D02*
X113289762Y-63394488D01*
X113289762Y-63394488D02*
X113337381Y-63346869D01*
X113337381Y-63346869D02*
X113408809Y-63323059D01*
X113408809Y-63323059D02*
X113456428Y-63323059D01*
X113456428Y-63323059D02*
X113527857Y-63346869D01*
X113527857Y-63346869D02*
X113551666Y-63370678D01*
X113742143Y-63370678D02*
X113765952Y-63346869D01*
X113765952Y-63346869D02*
X113813571Y-63323059D01*
X113813571Y-63323059D02*
X113932619Y-63323059D01*
X113932619Y-63323059D02*
X113980238Y-63346869D01*
X113980238Y-63346869D02*
X114004047Y-63370678D01*
X114004047Y-63370678D02*
X114027857Y-63418297D01*
X114027857Y-63418297D02*
X114027857Y-63465916D01*
X114027857Y-63465916D02*
X114004047Y-63537345D01*
X114004047Y-63537345D02*
X113718333Y-63823059D01*
X113718333Y-63823059D02*
X114027857Y-63823059D01*
X114853059Y-61635952D02*
X115257821Y-61635952D01*
X115257821Y-61635952D02*
X115305440Y-61612142D01*
X115305440Y-61612142D02*
X115329250Y-61588333D01*
X115329250Y-61588333D02*
X115353059Y-61540714D01*
X115353059Y-61540714D02*
X115353059Y-61445476D01*
X115353059Y-61445476D02*
X115329250Y-61397857D01*
X115329250Y-61397857D02*
X115305440Y-61374047D01*
X115305440Y-61374047D02*
X115257821Y-61350238D01*
X115257821Y-61350238D02*
X114853059Y-61350238D01*
X115353059Y-60850237D02*
X115353059Y-61135951D01*
X115353059Y-60993094D02*
X114853059Y-60993094D01*
X114853059Y-60993094D02*
X114924488Y-61040713D01*
X114924488Y-61040713D02*
X114972107Y-61088332D01*
X114972107Y-61088332D02*
X114995916Y-61135951D01*
X120525440Y-57408333D02*
X120549250Y-57432142D01*
X120549250Y-57432142D02*
X120573059Y-57503571D01*
X120573059Y-57503571D02*
X120573059Y-57551190D01*
X120573059Y-57551190D02*
X120549250Y-57622618D01*
X120549250Y-57622618D02*
X120501630Y-57670237D01*
X120501630Y-57670237D02*
X120454011Y-57694047D01*
X120454011Y-57694047D02*
X120358773Y-57717856D01*
X120358773Y-57717856D02*
X120287345Y-57717856D01*
X120287345Y-57717856D02*
X120192107Y-57694047D01*
X120192107Y-57694047D02*
X120144488Y-57670237D01*
X120144488Y-57670237D02*
X120096869Y-57622618D01*
X120096869Y-57622618D02*
X120073059Y-57551190D01*
X120073059Y-57551190D02*
X120073059Y-57503571D01*
X120073059Y-57503571D02*
X120096869Y-57432142D01*
X120096869Y-57432142D02*
X120120678Y-57408333D01*
X120073059Y-56955952D02*
X120073059Y-57194047D01*
X120073059Y-57194047D02*
X120311154Y-57217856D01*
X120311154Y-57217856D02*
X120287345Y-57194047D01*
X120287345Y-57194047D02*
X120263535Y-57146428D01*
X120263535Y-57146428D02*
X120263535Y-57027380D01*
X120263535Y-57027380D02*
X120287345Y-56979761D01*
X120287345Y-56979761D02*
X120311154Y-56955952D01*
X120311154Y-56955952D02*
X120358773Y-56932142D01*
X120358773Y-56932142D02*
X120477821Y-56932142D01*
X120477821Y-56932142D02*
X120525440Y-56955952D01*
X120525440Y-56955952D02*
X120549250Y-56979761D01*
X120549250Y-56979761D02*
X120573059Y-57027380D01*
X120573059Y-57027380D02*
X120573059Y-57146428D01*
X120573059Y-57146428D02*
X120549250Y-57194047D01*
X120549250Y-57194047D02*
X120525440Y-57217856D01*
D14*
%TO.C,J2*%
X140625000Y-67815000D02*
X140625000Y-69815000D01*
X135525000Y-63715000D02*
X138025000Y-63715000D01*
X138025000Y-73915000D02*
X136025000Y-73915000D01*
D15*
X138525000Y-65415000D02*
G75*
G02*
X138325000Y-65415000I-100000J0D01*
G01*
X138325000Y-65415000D02*
G75*
G02*
X138525000Y-65415000I100000J0D01*
G01*
D14*
%TO.C,J1*%
X110345000Y-74505000D02*
X108345000Y-74505000D01*
X114445000Y-69905000D02*
X114445000Y-71905000D01*
X104245000Y-71905000D02*
X104245000Y-69905000D01*
X108345000Y-66805000D02*
X110345000Y-66805000D01*
D15*
X112845000Y-72305000D02*
G75*
G02*
X112645000Y-72305000I-100000J0D01*
G01*
X112645000Y-72305000D02*
G75*
G02*
X112845000Y-72305000I100000J0D01*
G01*
%TD*%
M02*
